# xmcd CD database file
#
# Track frame offsets:
#	150
#	13382
#	27470
#	43005
#	59158
#	72203
#	86039
#	100013
#	114104
#	127251
#	141564
#	153707
#	166194
#	180367
#	193250
#	206918
#	220703
#	235103
#	248174
#	261689
#	274971
#	289055
#	302994
#	314794
#	327935
#
# Disc length: 4590 seconds
#
# Revision: 0
# Processed by: cddbd v1.5.2PL0 Copyright (c) Steve Scherf et al.
# Submitted via: CDex 1.51
#
DISCID=9411ec19
DTITLE=Various Artist - The Golden Age of Jazz CD01
DYEAR=2002
DGENRE=Jazz
TTITLE0=Grandpa's Spells - Jelly-Roll Morton's Red Hot Peppers
TTITLE1=Original Jelly-Roll Blues - Jelly-Roll Morton's Red Hot Peppers
TTITLE2=Doctor Jazz - Jelly-Roll Morton's Red Hot Peppers
TTITLE3=Cannon Ball Blues - Jelly-Roll Morton's Red Hot Peppers
TTITLE4=At The Jazz Band Ball - Bix Beiderbecke Gang
TTITLE5=Royal Garden Blues - Bix Beiderbecke Gang
TTITLE6=Jazz Me Blues - Bix Beiderbecke Gang
TTITLE7=Since My Best Girl Turned Me Down - Bix Beiderbecke Gang
TTITLE8=Come On And Stomp, Stomp, Stomp - Johnny Dodds' Black Bottom Stompers
TTITLE9=After You've Gone - Johnny Dodds' Black Bottom Stompers
TTITLE10=Joe Turner Blues - Johnny Dodds' Black Bottom Stompers
TTITLE11=When Erasmus Plays His Old Kazoo - Johnny Dodds' Black Bottom Stompers 	
TTITLE12=My Gal Sal - Miff Mole's (Little) Molers
TTITLE13=Honolulu Blues - Miff Mole's (Little) Molers
TTITLE14=One Step To Heaven (Windy City Stomp) - Miff Mole's (Little) Molers
TTITLE15=Shim-Me-Sha-Wabble - Miff Mole's (Little) Molers
TTITLE16=He's The Different Type Of Guy - Jimmie Noone New Orleans Gang
TTITLE17=Way Down Yonder In New Orleans - Jimmie Noone New Orleans Gang
TTITLE18=The Blues Jumped A Rabbit - Jimmie Noone New Orleans Gang
TTITLE19=Sweet Georgia Brown - Jimmie Noone New Orleans Gang
TTITLE20=House Rent Party Day - Louis Prima New Orleans Gang
TTITLE21=It's The Rhythm In Me - Louis Prima New Orleans Gang
TTITLE22=Worry Blues - Louis Prima New Orleans Gang
TTITLE23=Ja Da - Tommy Ladnier Orchestra
TTITLE24=Really The Blues - Tommy Ladnier Orchestra
EXTD=YEAR: 2002
EXTT0=
EXTT1=
EXTT2=
EXTT3=
EXTT4=
EXTT5=
EXTT6=
EXTT7=
EXTT8=
EXTT9=
EXTT10=
EXTT11=
EXTT12=
EXTT13=
EXTT14=
EXTT15=
EXTT16=
EXTT17=
EXTT18=
EXTT19=
EXTT20=
EXTT21=
EXTT22=
EXTT23=
EXTT24=
PLAYORDER=
